<svg width="35" height="35" viewBox="0 0 35 35" fill="none" xmlns="http://www.w3.org/2000/svg">
<rect x="1" y="1" width="33" height="33" rx="16.5" stroke="white" stroke-width="2"/>
<g clip-path="url(#clip0_128_1548)">
<path fill-rule="evenodd" clip-rule="evenodd" d="M17.5 21.25C19.5711 21.25 21.25 19.5711 21.25 17.5C21.25 15.4289 19.5711 13.75 17.5 13.75C15.4289 13.75 13.75 15.4289 13.75 17.5C13.75 19.5711 15.4289 21.25 17.5 21.25ZM17.5 20C18.8807 20 20 18.8807 20 17.5C20 16.1193 18.8807 15 17.5 15C16.1193 15 15 16.1193 15 17.5C15 18.8807 16.1193 20 17.5 20Z" fill="white"/>
<path d="M21.25 13.125C20.9048 13.125 20.625 13.4048 20.625 13.75C20.625 14.0952 20.9048 14.375 21.25 14.375C21.5952 14.375 21.875 14.0952 21.875 13.75C21.875 13.4048 21.5952 13.125 21.25 13.125Z" fill="white"/>
<path fill-rule="evenodd" clip-rule="evenodd" d="M11.0337 12.6725C10.625 13.4747 10.625 14.5248 10.625 16.625V18.375C10.625 20.4752 10.625 21.5253 11.0337 22.3274C11.3932 23.0331 11.9669 23.6067 12.6725 23.9662C13.4747 24.375 14.5248 24.375 16.625 24.375H18.375C20.4752 24.375 21.5253 24.375 22.3274 23.9662C23.0331 23.6067 23.6067 23.0331 23.9662 22.3274C24.375 21.5253 24.375 20.4752 24.375 18.375V16.625C24.375 14.5248 24.375 13.4747 23.9662 12.6725C23.6067 11.9669 23.0331 11.3932 22.3274 11.0337C21.5253 10.625 20.4752 10.625 18.375 10.625H16.625C14.5248 10.625 13.4747 10.625 12.6725 11.0337C11.9669 11.3932 11.3932 11.9669 11.0337 12.6725ZM18.375 11.875H16.625C15.5543 11.875 14.8264 11.876 14.2638 11.9219C13.7158 11.9667 13.4355 12.0479 13.24 12.1475C12.7696 12.3872 12.3872 12.7696 12.1475 13.24C12.0479 13.4355 11.9667 13.7158 11.9219 14.2638C11.876 14.8264 11.875 15.5543 11.875 16.625V18.375C11.875 19.4457 11.876 20.1736 11.9219 20.7362C11.9667 21.2842 12.0479 21.5645 12.1475 21.76C12.3872 22.2304 12.7696 22.6128 13.24 22.8525C13.4355 22.9521 13.7158 23.0333 14.2638 23.0781C14.8264 23.124 15.5543 23.125 16.625 23.125H18.375C19.4457 23.125 20.1736 23.124 20.7362 23.0781C21.2842 23.0333 21.5645 22.9521 21.76 22.8525C22.2304 22.6128 22.6128 22.2304 22.8525 21.76C22.9521 21.5645 23.0333 21.2842 23.0781 20.7362C23.124 20.1736 23.125 19.4457 23.125 18.375V16.625C23.125 15.5543 23.124 14.8264 23.0781 14.2638C23.0333 13.7158 22.9521 13.4355 22.8525 13.24C22.6128 12.7696 22.2304 12.3872 21.76 12.1475C21.5645 12.0479 21.2842 11.9667 20.7362 11.9219C20.1736 11.876 19.4457 11.875 18.375 11.875Z" fill="white"/>
</g>
<defs>
<clipPath id="clip0_128_1548">
<rect width="15" height="15" fill="white" transform="translate(10 10)"/>
</clipPath>
</defs>
</svg>
