<svg width="35" height="35" viewBox="0 0 35 35" fill="none" xmlns="http://www.w3.org/2000/svg">
<rect x="1" y="1" width="33" height="33" rx="16.5" stroke="white" stroke-width="2"/>
<path d="M13.75 16.5C13.75 16.0858 13.4142 15.75 13 15.75C12.5858 15.75 12.25 16.0858 12.25 16.5H13.75ZM12.25 22.5C12.25 22.9142 12.5858 23.25 13 23.25C13.4142 23.25 13.75 22.9142 13.75 22.5H12.25ZM22.25 22.5C22.25 22.9142 22.5858 23.25 23 23.25C23.4142 23.25 23.75 22.9142 23.75 22.5H22.25ZM16.25 22.5C16.25 22.9142 16.5858 23.25 17 23.25C17.4142 23.25 17.75 22.9142 17.75 22.5H16.25ZM13.75 13.5C13.75 13.0858 13.4142 12.75 13 12.75C12.5858 12.75 12.25 13.0858 12.25 13.5H13.75ZM12.25 14.5C12.25 14.9142 12.5858 15.25 13 15.25C13.4142 15.25 13.75 14.9142 13.75 14.5H12.25ZM12.25 16.5V22.5H13.75V16.5H12.25ZM23.75 22.5V19.5H22.25V22.5H23.75ZM23.75 19.5C23.75 17.4289 22.0711 15.75 20 15.75V17.25C21.2426 17.25 22.25 18.2574 22.25 19.5H23.75ZM20 15.75C17.9289 15.75 16.25 17.4289 16.25 19.5H17.75C17.75 18.2574 18.7574 17.25 20 17.25V15.75ZM16.25 19.5V22.5H17.75V19.5H16.25ZM12.25 13.5V14.5H13.75V13.5H12.25Z" fill="white"/>
</svg>
