<svg width="20" height="20" viewBox="0 0 20 20" fill="none" xmlns="http://www.w3.org/2000/svg">
<g clip-path="url(#clip0_128_1658)">
<path fill-rule="evenodd" clip-rule="evenodd" d="M4 2.586C4 2.034 4.448 2 5 2H15C15.552 2 16 2.034 16 2.586V3.83502L10.447 6.612C10.166 6.752 9.83399 6.752 9.55299 6.612L4 3.83502V2.586ZM2.276 5.20898L9.106 8.62402C9.669 8.90602 10.331 8.90602 10.894 8.62402L17.724 5.20898C17.893 5.12498 18 4.95202 18 4.76202V1.586C18 0.480999 17.105 0 16 0H4C2.895 0 2 0.480999 2 1.586V4.76202C2 4.95202 2.107 5.12498 2.276 5.20898ZM18 16.586C18 17.138 17.552 18 17 18H3C2.448 18 2 17.138 2 16.586V10.116C2 9.74503 2.391 9.50301 2.724 9.66901C6.9 11.757 5.617 11.116 9.119 12.867C9.674 13.145 10.328 13.149 10.886 12.877C14.357 11.193 12.898 11.897 17.284 9.79102C17.615 9.63102 18 9.873 18 10.242V16.586ZM17.106 7.51801L10.447 10.848C10.166 10.988 9.83399 10.988 9.55299 10.848L2.894 7.51801C1.565 6.85401 0 7.82101 0 9.30701V17.586C0 18.691 0.895 20 2 20H18C19.105 20 20 18.691 20 17.586V9.30701C20 7.82101 18.435 6.85401 17.106 7.51801Z" fill="white"/>
</g>
<defs>
<clipPath id="clip0_128_1658">
<rect width="20" height="20" fill="white"/>
</clipPath>
</defs>
</svg>
