<svg width="20" height="20" viewBox="0 0 20 20" fill="none" xmlns="http://www.w3.org/2000/svg">
<path d="M10.0001 1.6665C8.23316 1.66827 6.53918 2.37143 5.29038 3.62148C4.04158 4.87153 3.34012 6.56622 3.34012 8.33317C3.319 10.4757 3.94285 12.5751 5.13057 14.3585C6.31829 16.1419 8.01498 17.5268 10.0001 18.3332C11.9846 17.5262 13.6806 16.1411 14.8677 14.3578C16.0548 12.5745 16.6782 10.4754 16.6568 8.33317C16.6568 6.56679 15.9558 4.87261 14.7077 3.62266C13.4596 2.3727 11.7665 1.66915 10.0001 1.6665ZM10.0001 10.8332C9.50567 10.8332 9.02232 10.6865 8.61119 10.4118C8.20007 10.1371 7.87964 9.74669 7.69042 9.28988C7.5012 8.83306 7.45169 8.3304 7.54816 7.84544C7.64462 7.36049 7.88272 6.91503 8.23235 6.5654C8.58198 6.21577 9.02744 5.97767 9.51239 5.88121C9.99735 5.78474 10.5 5.83425 10.9568 6.02347C11.4136 6.21269 11.8041 6.53312 12.0788 6.94424C12.3535 7.35537 12.5001 7.83872 12.5001 8.33317C12.5001 8.99621 12.2367 9.6321 11.7679 10.1009C11.299 10.5698 10.6632 10.8332 10.0001 10.8332Z" fill="white"/>
</svg>
